<?xml version="1.0" standalone="no"?>
<!DOCTYPE svg PUBLIC "-//W3C//DTD SVG 20010904//EN"
 "http://www.w3.org/TR/2001/REC-SVG-20010904/DTD/svg10.dtd">
<svg version="1.0" xmlns="http://www.w3.org/2000/svg"
 width="368.000000pt" height="368.000000pt" viewBox="0 0 368.000000 368.000000"
 preserveAspectRatio="xMidYMid meet">
<metadata>
Created by potrace 1.11, written by Peter Selinger 2001-2013
</metadata>
<g transform="translate(0.000000,368.000000) scale(0.100000,-0.100000)"
fill="#000000" stroke="none">
<path d="M1050 2691 c-92 -30 -175 -105 -218 -198 -41 -91 -62 -216 -62 -379
l0 -134 -29 0 c-25 0 -31 -7 -50 -49 -11 -27 -21 -54 -21 -60 0 -6 21 -11 50
-11 l50 0 0 -510 c0 -401 3 -510 13 -510 6 0 53 18 102 39 l90 39 3 471 2 471
116 0 115 0 25 55 c13 31 24 58 24 60 0 3 -63 5 -140 5 l-140 0 0 241 c0 275
6 315 57 359 28 25 42 30 84 30 44 0 55 -4 83 -32 17 -18 38 -44 47 -57 l16
-25 44 26 c25 15 56 35 69 46 l25 20 -23 25 c-12 13 -48 37 -80 53 -48 24 -71
29 -142 31 -47 1 -96 -1 -110 -6z"/>
<path d="M2978 2652 l-98 -35 0 -327 0 -328 -47 15 c-62 19 -153 10 -222 -23
-68 -31 -168 -132 -203 -204 -52 -109 -63 -157 -63 -280 0 -105 3 -120 29
-177 32 -70 93 -133 153 -158 56 -24 150 -22 201 4 47 24 107 82 130 126 l15
30 17 -52 c28 -86 64 -113 150 -113 66 0 109 20 160 76 43 47 48 65 25 84 -12
10 -20 7 -46 -14 -33 -28 -58 -33 -77 -14 -9 9 -12 181 -12 714 0 387 -3 705
-7 707 -5 2 -52 -12 -105 -31z m-137 -805 l34 -23 0 -179 c0 -158 -3 -189 -22
-250 -28 -90 -71 -135 -135 -142 -89 -10 -145 51 -174 188 -29 135 14 310 92
381 59 53 148 64 205 25z"/>
<path d="M1978 1966 c-47 -17 -89 -34 -92 -37 -4 -3 -13 -48 -22 -100 -39
-241 -109 -438 -177 -495 -53 -45 -56 -34 -59 274 -3 256 -5 280 -23 311 -24
40 -77 71 -124 71 -79 0 -164 -49 -197 -112 -14 -27 -14 -31 2 -49 17 -19 17
-19 30 0 7 10 27 24 44 31 59 24 60 18 61 -274 0 -306 7 -385 35 -423 29 -39
84 -56 138 -42 109 27 197 158 261 389 l24 85 0 -166 c1 -95 6 -181 12 -200
40 -120 196 -140 297 -38 50 49 60 75 38 97 -14 15 -18 14 -44 -11 -31 -30
-76 -36 -86 -11 -3 9 -6 177 -6 375 0 281 -3 359 -12 358 -7 -1 -52 -16 -100
-33z"/>
</g>
</svg>
